<svg xmlns="http://www.w3.org/2000/svg" width="512" height="512" viewBox="0 0 512 512" preserveAspectRatio="xMidYMid meet">
  <g>
    <path d="M32 64c0-17.7 14.3-32 32-32H352c17.7 0 32 14.3 32 32V96h51.2c42.4 0 76.8 34.4 76.8 76.8V272c0 44.2-35.8 80-80 80H80c-44.2 0-80-35.8-80-80V64zM384 96V64H64V272c0 8.8 7.2 16 16 16H432c8.8 0 16-7.2 16-16V172.8c0-7.1-5.7-12.8-12.8-12.8H384zM208 272c-26.5 0-48-21.5-48-48V160c0-8.8 7.2-16 16-16s16 7.2 16 16v64c0 8.8 7.2 16 16 16s16-7.2 16-16V160c0-8.8 7.2-16 16-16s16 7.2 16 16v64c0 8.8 7.2 16 16 16s16-7.2 16-16V160c0-8.8 7.2-16 16-16s16 7.2 16 16v64c0 26.5-21.5 48-48 48H208z"/>
  </g>
</svg> 